<!--Scalable Vector Graphic-->
<svg xmlns="http://www.w3.org/2000/svg" width="19.109" height="17.438" viewBox="0 0 19.109 17.438">
  <path id="Icon_awesome-copyright" data-name="Icon awesome-copyright" d="M10.117.563C4.84.563.563,4.466.563,9.281S4.84,18,10.117,18s9.555-3.9,9.555-8.719S15.394.563,10.117.563ZM14.63,12.753A5.98,5.98,0,0,1,10.4,14.361c-3.263,0-5.566-2.224-5.566-5.118C4.831,6.385,7.22,4.2,10.37,4.2a5.809,5.809,0,0,1,3.984,1.368.394.394,0,0,1,.048.514L13.54,7.3a.49.49,0,0,1-.7.081,4.112,4.112,0,0,0-2.384-.84A2.635,2.635,0,0,0,7.606,9.218a2.741,2.741,0,0,0,2.862,2.8,3.923,3.923,0,0,0,2.525-1.006.491.491,0,0,1,.713.037l.946,1.18a.393.393,0,0,1-.021.523Z" transform="translate(-0.563 -0.563)" fill="#818d63"/>
</svg>

